# xmcd
#
# Track frame offsets:
#       150
#       12827
#       21537
#       35432
#       46372
#       59385
#       75522
#       84075
#       96975
#       108395
#
# Disc length: 1569 seconds
#
# Revision: 2
# Processed by: cddbd v1.5.2PL0 Copyright (c) Steve Scherf et al.
# Submitted via: FreeDbEdit v0.1
#
DISCID=72061f0a
DTITLE=The Stanley Brothers - Precious Memories
DYEAR=2001
DGENRE=Gospel
TTITLE0=Precious Memories
TTITLE1=This World Is Not My Home
TTITLE2=Farther Along
TTITLE3=Amazing Grace
TTITLE4=Leaning on the Everlasting Arms
TTITLE5=What a Friend We Have in Jesus
TTITLE6=Are You Washed in the Blood
TTITLE7=Rock of Ages
TTITLE8=Over in the Glory Land
TTITLE9=Lord I'm Coming Home
EXTD=King Records
EXTT0=
EXTT1=
EXTT2=
EXTT3=
EXTT4=
EXTT5=
EXTT6=
EXTT7=
EXTT8=
EXTT9=
PLAYORDER=
